<svg width="277" height="277" viewBox="0 0 277 277" fill="none" xmlns="http://www.w3.org/2000/svg">
<path d="M0 138.123V0H276.246V276.246H0" fill="#007ACC"/>
<path d="M60.5667 138.607V149.864H96.4788V252.076H121.963V149.864H157.875V138.814C157.875 132.599 157.875 127.557 157.599 127.419C157.599 127.212 135.706 127.143 109.117 127.143L60.7738 127.35V138.676L60.5667 138.607ZM221.964 127.074C229.008 128.731 234.395 131.908 239.23 136.949C241.785 139.712 245.583 144.546 245.859 145.789C245.859 146.204 233.912 154.284 226.66 158.773C226.384 158.98 225.279 157.806 224.174 156.011C220.583 150.9 216.923 148.69 211.19 148.276C202.903 147.723 197.378 152.074 197.378 159.326C197.378 161.536 197.792 162.779 198.621 164.574C200.486 168.373 203.939 170.652 214.644 175.348C234.395 183.843 242.959 189.437 248.139 197.448C254.009 206.426 255.321 220.514 251.384 231.081C246.964 242.614 236.191 250.418 220.79 252.974C215.956 253.802 204.906 253.664 199.726 252.766C188.676 250.695 178.11 245.17 171.618 238.056C169.063 235.294 164.159 227.904 164.436 227.421L167.06 225.763L177.419 219.755L185.223 215.197L187.019 217.614C189.298 221.205 194.408 226.039 197.378 227.697C206.356 232.324 218.373 231.702 224.312 226.316C226.867 223.968 227.973 221.481 227.973 218.028C227.973 214.851 227.489 213.401 225.901 210.984C223.691 207.945 219.271 205.459 206.84 199.934C192.544 193.857 186.466 189.989 180.803 184.05C177.557 180.459 174.588 174.864 173.206 170.237C172.171 166.232 171.825 156.425 172.792 152.488C175.762 138.676 186.19 129.007 201.107 126.245C205.942 125.278 217.337 125.692 222.102 126.936L221.964 127.074Z" fill="white"/>
</svg>
